<svg width="103" height="103" viewBox="0 0 103 103" fill="none" xmlns="http://www.w3.org/2000/svg">
<circle cx="51.5" cy="51.5" r="51.5" fill="#A384EB"/>
<path d="M8.00208 32.3586C15.813 27.6025 36.3833 25.0976 56.1764 53.1263C75.9696 81.1551 90.7499 76.5716 95.6658 70.7762" stroke="#7158BD" stroke-width="7" stroke-linecap="round"/>
<path d="M10.696 43.008C11.96 43.008 13.136 43.224 14.224 43.656C15.312 44.088 16.256 44.696 17.056 45.48C17.872 46.264 18.504 47.176 18.952 48.216C19.416 49.24 19.648 50.36 19.648 51.576C19.648 52.776 19.416 53.904 18.952 54.96C18.504 56.016 17.872 56.936 17.056 57.72C16.256 58.504 15.312 59.12 14.224 59.568C13.136 60 11.96 60.216 10.696 60.216C9.432 60.216 8.256 60 7.168 59.568C6.096 59.12 5.152 58.504 4.336 57.72C3.52 56.936 2.88 56.024 2.416 54.984C1.968 53.928 1.744 52.792 1.744 51.576C1.744 50.36 1.968 49.232 2.416 48.192C2.88 47.152 3.52 46.248 4.336 45.48C5.152 44.696 6.096 44.088 7.168 43.656C8.256 43.224 9.432 43.008 10.696 43.008ZM10.744 45.72C9.96 45.72 9.224 45.872 8.536 46.176C7.848 46.464 7.24 46.88 6.712 47.424C6.184 47.952 5.768 48.568 5.464 49.272C5.176 49.976 5.032 50.744 5.032 51.576C5.032 52.408 5.184 53.184 5.488 53.904C5.792 54.608 6.208 55.232 6.736 55.776C7.264 56.32 7.872 56.744 8.56 57.048C9.248 57.352 9.976 57.504 10.744 57.504C11.512 57.504 12.232 57.352 12.904 57.048C13.592 56.744 14.192 56.32 14.704 55.776C15.216 55.232 15.616 54.608 15.904 53.904C16.208 53.184 16.36 52.408 16.36 51.576C16.36 50.744 16.208 49.976 15.904 49.272C15.616 48.568 15.216 47.952 14.704 47.424C14.192 46.88 13.592 46.464 12.904 46.176C12.232 45.872 11.512 45.72 10.744 45.72ZM31.6863 52.848C31.6863 51.92 31.4303 51.192 30.9183 50.664C30.4223 50.136 29.7263 49.872 28.8303 49.872C27.7903 49.872 26.9663 50.24 26.3583 50.976C25.7663 51.696 25.4703 52.608 25.4703 53.712H24.6303C24.6303 52.144 24.8463 50.88 25.2783 49.92C25.7263 48.944 26.3583 48.232 27.1743 47.784C28.0063 47.32 28.9743 47.088 30.0783 47.088C31.0703 47.088 31.9183 47.288 32.6223 47.688C33.3263 48.088 33.8703 48.656 34.2543 49.392C34.6383 50.112 34.8303 50.984 34.8303 52.008V60H31.6863V52.848ZM22.3503 47.208H25.4703V60H22.3503V47.208ZM35.4543 43.2H38.9103L43.2543 57.984H42.4622L46.8063 43.2H49.9743L54.3183 57.984H53.5503L57.8463 43.2H61.1823L55.4943 60H52.1583L47.9343 45.792H48.7263L44.4063 60H41.1183L35.4543 43.2ZM66.3031 54.36C65.4871 54.36 64.8791 54.488 64.4791 54.744C64.0791 55 63.8791 55.424 63.8791 56.016C63.8791 56.56 64.0791 57 64.4791 57.336C64.8951 57.672 65.4551 57.84 66.1591 57.84C66.7831 57.84 67.3431 57.736 67.8391 57.528C68.3511 57.304 68.7511 57.008 69.0391 56.64C69.3431 56.256 69.5191 55.832 69.5671 55.368L70.0951 57.6C69.7111 58.432 69.1191 59.064 68.3191 59.496C67.5191 59.928 66.5511 60.144 65.4151 60.144C64.5031 60.144 63.7111 59.968 63.0391 59.616C62.3671 59.264 61.8471 58.792 61.4791 58.2C61.1111 57.592 60.9271 56.912 60.9271 56.16C60.9271 54.976 61.3511 54.048 62.1991 53.376C63.0471 52.688 64.2471 52.336 65.7991 52.32H69.9031V54.36H66.3031ZM69.5431 51.936C69.5431 51.168 69.2951 50.568 68.7991 50.136C68.3191 49.688 67.5991 49.464 66.6391 49.464C66.0471 49.464 65.4231 49.576 64.7671 49.8C64.1271 50.008 63.4791 50.312 62.8231 50.712L61.6951 48.696C62.3031 48.328 62.8871 48.032 63.4471 47.808C64.0071 47.568 64.5911 47.392 65.1991 47.28C65.8231 47.152 66.5351 47.088 67.3351 47.088C69.0151 47.088 70.3111 47.488 71.2231 48.288C72.1351 49.088 72.5991 50.192 72.6151 51.6L72.6391 60H69.5671L69.5431 51.936ZM73.8432 47.208H77.1072L80.4672 57.12L83.7552 47.208H86.8992L82.0032 60H78.7872L73.8432 47.208ZM96.9205 52.632C96.8885 51.96 96.7365 51.392 96.4645 50.928C96.1925 50.448 95.8085 50.08 95.3125 49.824C94.8325 49.552 94.2805 49.416 93.6565 49.416C92.9365 49.416 92.3125 49.584 91.7845 49.92C91.2565 50.256 90.8405 50.728 90.5365 51.336C90.2485 51.944 90.1045 52.648 90.1045 53.448C90.1045 54.328 90.2645 55.088 90.5845 55.728C90.9205 56.368 91.3765 56.864 91.9525 57.216C92.5285 57.552 93.1925 57.72 93.9445 57.72C95.3045 57.72 96.4645 57.232 97.4245 56.256L99.0805 57.912C98.4405 58.616 97.6645 59.16 96.7525 59.544C95.8405 59.928 94.8245 60.12 93.7045 60.12C92.3605 60.12 91.1925 59.848 90.2005 59.304C89.2245 58.744 88.4565 57.984 87.8965 57.024C87.3525 56.048 87.0805 54.912 87.0805 53.616C87.0805 52.32 87.3525 51.184 87.8965 50.208C88.4565 49.232 89.2245 48.472 90.2005 47.928C91.1925 47.384 92.3285 47.104 93.6085 47.088C95.1285 47.088 96.3525 47.4 97.2805 48.024C98.2245 48.648 98.8965 49.528 99.2965 50.664C99.6965 51.784 99.8405 53.12 99.7285 54.672H89.6485V52.632H96.9205Z" fill="white"/>
</svg>
